<svg xmlns="http://www.w3.org/2000/svg" height="200pt" version="1.1" viewBox="0 -10 620 620" width="1200pt">
<g transform="scale(0.9)" id="surface1">
<path d="M 200 80 L 420 80 L 420 100 L 200 100 Z M 200 80 " style=" stroke:none;fill-rule:nonzero;fill:rgb(0%,0%,0%);fill-opacity:1;" />
<path d="M 230 50 L 390 50 L 390 70 L 230 70 Z M 230 50 " style=" stroke:none;fill-rule:nonzero;fill:rgb(0%,0%,0%);fill-opacity:1;" />
<path d="M 200 500 L 420 500 L 420 520 L 200 520 Z M 200 500 " style=" stroke:none;fill-rule:nonzero;fill:rgb(0%,0%,0%);fill-opacity:1;" />
<path d="M 230 530 L 390 530 L 390 550 L 230 550 Z M 230 530 " style=" stroke:none;fill-rule:nonzero;fill:rgb(0%,0%,0%);fill-opacity:1;" />
<path d="M 619.828125 169.160156 C 619.765625 168.480469 619.632812 167.8125 619.429688 167.15625 C 619.265625 166.558594 619.042969 165.972656 618.757812 165.410156 C 618.472656 164.875 618.140625 164.359375 617.757812 163.882812 C 617.34375 163.335938 616.867188 162.84375 616.335938 162.402344 C 616.117188 162.210938 616 161.949219 615.761719 161.792969 L 520 94.789062 L 520 10 C 520 4.476562 515.523438 0 510 0 L 110 0 C 104.476562 0 100 4.476562 100 10 L 100 94.789062 L 4.265625 161.792969 C 4.027344 161.949219 3.910156 162.210938 3.691406 162.402344 C 3.164062 162.84375 2.691406 163.335938 2.269531 163.882812 C 1.890625 164.359375 1.558594 164.875 1.269531 165.410156 C 0.992188 165.972656 0.765625 166.558594 0.601562 167.15625 C 0.394531 167.8125 0.265625 168.480469 0.199219 169.160156 C 0.117188 169.4375 0.046875 169.71875 0 170 L 0 430 C 0 435.523438 4.476562 440 10 440 L 100 440 L 100 590 C 100 595.523438 104.476562 600 110 600 L 510 600 C 515.523438 600 520 595.523438 520 590 L 520 440 L 610 440 C 615.523438 440 620 435.523438 620 430 L 620 170 C 619.960938 169.71875 619.902344 169.4375 619.828125 169.160156 Z M 578.28125 160 L 520 160 L 520 119.210938 Z M 500 20 L 500 160 L 470 160 L 470 120 C 470 114.476562 465.523438 110 460 110 L 160 110 C 154.476562 110 150 114.476562 150 120 L 150 160 L 120 160 L 120 20 Z M 170 160 L 170 130 L 450 130 L 450 160 Z M 100 160 L 41.71875 160 L 100 119.210938 Z M 500 580 L 120 580 L 120 440 L 150 440 L 150 480 C 150 485.523438 154.476562 490 160 490 L 460 490 C 465.523438 490 470 485.523438 470 480 L 470 440 L 500 440 Z M 450 440 L 450 470 L 170 470 L 170 440 Z M 600 420 L 20 420 L 20 180 L 600 180 Z M 600 420 " style=" stroke:none;fill-rule:nonzero;fill:rgb(0%,0%,0%);fill-opacity:1;" />
<path d="M 220 210 L 180 210 C 163.433594 210 150 223.433594 150 240 L 150 380 C 150 385.523438 154.476562 390 160 390 C 165.523438 390 170 385.523438 170 380 L 170 310 L 230 310 L 230 380 C 230 385.523438 234.476562 390 240 390 C 245.523438 390 250 385.523438 250 380 L 250 240 C 250 223.433594 236.566406 210 220 210 Z M 170 290 L 170 240 C 170 234.476562 174.476562 230 180 230 L 220 230 C 225.523438 230 230 234.476562 230 240 L 230 290 Z M 170 290 " style=" stroke:none;fill-rule:nonzero;fill:rgb(0%,0%,0%);fill-opacity:1;" />
<path d="M 290 230 L 350 230 C 355.523438 230 360 225.523438 360 220 C 360 214.476562 355.523438 210 350 210 L 290 210 C 273.433594 210 260 223.433594 260 240 L 260 280 C 260 296.566406 273.433594 310 290 310 L 330 310 C 335.523438 310 340 314.476562 340 320 L 340 360 C 340 365.523438 335.523438 370 330 370 L 270 370 C 264.476562 370 260 374.476562 260 380 C 260 385.523438 264.476562 390 270 390 L 330 390 C 346.566406 390 360 376.566406 360 360 L 360 320 C 360 303.433594 346.566406 290 330 290 L 290 290 C 284.476562 290 280 285.523438 280 280 L 280 240 C 280 234.476562 284.476562 230 290 230 Z M 290 230 " style=" stroke:none;fill-rule:nonzero;fill:rgb(0%,0%,0%);fill-opacity:1;" />
<path d="M 462.300781 210.257812 C 457.78125 209.214844 453.140625 211.390625 451.050781 215.53125 L 420 277.640625 L 389 215.53125 C 386.957031 211.3125 382.265625 209.082031 377.710938 210.152344 C 373.148438 211.226562 369.945312 215.316406 370 220 L 370 380 C 370 385.523438 374.476562 390 380 390 C 385.523438 390 390 385.523438 390 380 L 390 262.359375 L 411 304.46875 C 412.882812 307.621094 416.28125 309.554688 419.953125 309.554688 C 423.617188 309.554688 427.023438 307.621094 428.902344 304.46875 L 450 262.359375 L 450 380 C 450 385.523438 454.476562 390 460 390 C 465.523438 390 470 385.523438 470 380 L 470 220 C 470.003906 215.359375 466.816406 211.328125 462.300781 210.257812 Z M 462.300781 210.257812 " style=" stroke:none;fill-rule:nonzero;fill:rgb(0%,0%,0%);fill-opacity:1;" />
</g>
</svg>