<?xml version="1.0" encoding="UTF-8" standalone="no"?>
<!-- Created with Inkscape (http://www.inkscape.org/) -->

<svg
   xmlns:dc="http://purl.org/dc/elements/1.1/"
   xmlns:cc="http://creativecommons.org/ns#"
   xmlns:rdf="http://www.w3.org/1999/02/22-rdf-syntax-ns#"
   xmlns:svg="http://www.w3.org/2000/svg"
   xmlns="http://www.w3.org/2000/svg"
   xmlns:sodipodi="http://sodipodi.sourceforge.net/DTD/sodipodi-0.dtd"
   xmlns:inkscape="http://www.inkscape.org/namespaces/inkscape"
   version="1.1"
   width="250"
   height="72"
   id="svg2"
   xml:space="preserve"
   inkscape:version="0.48.1 "
   sodipodi:docname="basiccigarslogo.svg"><sodipodi:namedview
     pagecolor="#ffffff"
     bordercolor="#666666"
     borderopacity="1"
     objecttolerance="10"
     gridtolerance="10"
     guidetolerance="10"
     inkscape:pageopacity="0"
     inkscape:pageshadow="2"
     inkscape:window-width="1366"
     inkscape:window-height="706"
     id="namedview3009"
     showgrid="false"
     inkscape:zoom="2.1849467"
     inkscape:cx="109.8425"
     inkscape:cy="36.61425"
     inkscape:window-x="0"
     inkscape:window-y="0"
     inkscape:window-maximized="1"
     inkscape:current-layer="svg2" /><metadata
     id="metadata8"><rdf:RDF><cc:Work
         rdf:about=""><dc:format>image/svg+xml</dc:format><dc:type
           rdf:resource="http://purl.org/dc/dcmitype/StillImage" /><dc:title /></cc:Work></rdf:RDF></metadata><defs
     id="defs6" /><g
     id="g3018"
     style="fill:#a2041e;fill-opacity:1"
     transform="matrix(1.3374721,0,0,1.3374721,-18.343546,-16.313708)"><path
       d="m 151.35465,23.086875 c 2.27,0 4.11125,-1.84125 4.11125,-4.11125 0,-2.27 -1.84125,-4.11125 -4.11125,-4.11125 -2.27,0 -4.11125,1.84125 -4.11125,4.11125 0,2.27 1.84125,4.11125 4.11125,4.11125"
       id="path18"
       style="fill:#a2041e;fill-opacity:1;fill-rule:evenodd;stroke:none"
       inkscape:connector-curvature="0" /><path
       d="m 160.0134,62.021875 c -1.175,-0.865 -4.33,-1.73125 -4.33,-5.69 l 0,-29.625 -9.95625,2.4125 c -0.7425,0.185 -0.31,0.495 0.0613,0.6175 0.37125,0.12375 2.72125,1.67 2.72125,4.0825 l 0,22.5125 c 0,3.95875 -3.155,4.825 -4.32875,5.69 -0.37125,0.12375 -0.2475,0.61875 0.0613,0.61875 l 15.70875,0 c 0.43375,0 0.43375,-0.4325 0.0625,-0.61875"
       id="path20"
       style="fill:#a2041e;fill-opacity:1;fill-rule:evenodd;stroke:none"
       inkscape:connector-curvature="0" /><path
       d="m 183.14465,61.250625 c -7.245,0 -13.12,-7.51875 -13.12,-16.79375 0,-9.27375 3.96625,-16.79375 13.12,-16.79375 4.20625,0.3425 10.02,1.7025 11.1325,9.3725 l 0.99,0.37125 2.35,-7.29875 c -3.83375,-2.35 -9.03,-3.94375 -15.215,-4.26 -12.12125,0 -20.09375,8.00375 -20.09375,18.485 0,10.4825 8.49875,18.98 18.98125,18.98 6.30875,-0.05375 12.36875,-2.52875 16.8225,-9.455 l -1.485,-0.86625 c -2.5975,3.5875 -6.3075,7.9825 -13.4825,8.25875"
       id="path22"
       style="fill:#a2041e;fill-opacity:1;fill-rule:evenodd;stroke:none"
       inkscape:connector-curvature="0" /><path
       d="m 18.254646,19.288125 c -0.43375,0 -0.61875,0.5 0,0.5625 1.9175,0.30875 3.28125,2.29375 3.28125,3.53125 l -0.1875,32.875 c 0,5.00875 -4.13,5.8125 -4.625,5.8125 -0.495,0 -0.43125,0.5625 0.0625,0.5625 l 28.3125,0 c 12.865,0 18.815,-5.445 18.9375,-12.125 0,-9.4 -14.285,-10.68625 -14.71875,-10.625 -0.4325,0.0612 -0.805,-0.43875 -0.125,-0.625 4.88625,-0.86625 10.875,-3.0775 10.875,-10.4375 0,-7.36 -10.1525,-9.53125 -15.65625,-9.53125 l -26.15625,0 z m 11,1.53125 9.03125,0 c 5.69,0 13.125,1.6325 13.125,8.3125 0,6.67875 -5.69,9.5 -11.875,9.5 l -10.28125,0 0,-17.8125 z m 0,19.8125 10.53125,0 c 6.18375,0 15.59375,1.835 15.59375,9.875 0,8.04 -7.17625,10.15625 -12,10.15625 l -9.03125,0 c -2.96875,0 -5.09375,-0.50875 -5.09375,-10.28125 l 0,-9.75 z"
       id="path24"
       style="fill:#a2041e;fill-opacity:1;fill-rule:evenodd;stroke:none"
       inkscape:connector-curvature="0" /><path
       d="m 84.692146,25.913125 c -6.06125,0 -10.895,1.09375 -15.71875,4.0625 l 1.46875,6.6875 1.25,-0.25 c -0.12375,-3.71125 3.96,-8.5325 12.125,-8.65625 8.16375,-0.12375 9.9075,6.9375 10.03125,12.875 -14.34875,-0.86625 -26.22375,2.22 -26.71875,11.125 -0.49375,8.90625 8.66125,11.5 15.09375,11.5 6.4325,0 9.89625,-3.2275 11.875,-7.0625 0.495,2.72125 0.985,4.4575 2.46875,6.4375 l 7.531254,0 c 0.6175,0 0.86625,-0.47125 0.125,-0.71875 -2.475,-1.2375 -2.97125,-3.83875 -3.09375,-6.4375 l -0.375,-15.96875 C 100.6309,27.013125 90.753396,25.913125 84.692146,25.913125 z m 6.90625,16.4375 c 0.8405,-0.0189 1.61609,-0.0155 2.25,0 l 0,7.0625 c 0,10.6375 -9.29875,12 -10.90625,12 -1.60875,0 -8.4,-1.24375 -7.78125,-9.65625 0.58188,-7.91547 10.55403,-9.27408 16.4375,-9.40625 z"
       id="path30"
       style="fill:#a2041e;fill-opacity:1;fill-rule:evenodd;stroke:none"
       inkscape:connector-curvature="0" /><path
       d="m 136.7584,34.561875 0.7425,0.37125 2.22625,-5.69 c -5.9375,-2.72125 -10.1425,-3.46375 -15.46125,-3.34 -5.31875,0.12375 -13.855,2.9675 -15.58625,8.65875 -1.7325,5.69 2.1025,11.1325 9.03,12.12125 6.92625,0.99 10.51375,1.7325 13.11125,2.35 2.5975,0.61875 4.9475,2.475 3.95875,7.4225 -0.99,4.9475 -9.2775,5.31875 -10.885,5.56625 -1.60875,0.2475 -14.35,-0.98875 -14.35,-7.66875 l -0.6175,-0.37125 -2.47375,6.55625 c 5.31875,2.47375 11.875,3.9575 18.30625,3.46375 6.4325,-0.495 13.9775,-2.35125 16.7,-9.89625 1.73125,-5.195 -1.28,-10.24125 -6.185,-11.1325 -5.44375,-0.99 -11.25625,-1.60875 -15.215,-2.5975 -3.95875,-0.99 -4.33,-3.95875 -4.20625,-5.81375 0.12375,-1.85625 2.35,-6.68 9.525,-6.68 3.95875,0 10.08125,1.2375 11.38,6.68"
       id="path34"
       style="fill:#a2041e;fill-opacity:1;fill-rule:evenodd;stroke:none"
       inkscape:connector-curvature="0" /></g></svg>