<svg fill="#000000" xmlns="http://www.w3.org/2000/svg"  viewBox="0 0 64 64" width="64px" height="64px"><path fill="none" stroke="#000000" stroke-linejoin="round" stroke-miterlimit="10" stroke-width="2" d="M49,16c0,0,0,5.654-34,9V12	c0,0,32-3,34-9V16z"/><path fill="none" stroke="#000000" stroke-linejoin="round" stroke-miterlimit="10" stroke-width="2" d="M15,48c0,0,34-3.423,34-9v13	c0,0,0,5.654-34,9V48z"/><path fill="none" stroke="#000000" stroke-linejoin="round" stroke-miterlimit="10" stroke-width="2" d="M49,21	c0,0-0.008-1.044-2.703-2.5"/><path fill="none" stroke="#000000" stroke-linejoin="round" stroke-miterlimit="10" stroke-width="2" d="M15,25	c0,0,8.827,0.89,17.486,2.5"/><path fill="none" stroke="#000000" stroke-linejoin="round" stroke-miterlimit="10" stroke-width="2" d="M49,39	c0,0-0.008-1.044-2.703-2.5"/><path fill="none" stroke="#000000" stroke-linejoin="round" stroke-miterlimit="10" stroke-width="2" d="M15,43	c0,0,8.827,0.89,17.486,2.5"/><path fill="none" stroke="#000000" stroke-linejoin="round" stroke-miterlimit="10" stroke-width="2" d="M15,30c0,0,34-3.423,34-9v13	c0,0,0,5.654-34,9V30z"/><line x1="22" x2="22" y1="16.741" y2="18.741" fill="none" stroke="#000000" stroke-linecap="round" stroke-linejoin="round" stroke-miterlimit="10" stroke-width="2"/><line x1="27" x2="27" y1="16.053" y2="18.053" fill="none" stroke="#000000" stroke-linecap="round" stroke-linejoin="round" stroke-miterlimit="10" stroke-width="2"/><line x1="32" x2="32" y1="15.22" y2="17.22" fill="none" stroke="#000000" stroke-linecap="round" stroke-linejoin="round" stroke-miterlimit="10" stroke-width="2"/><line x1="37" x2="37" y1="14.16" y2="16.16" fill="none" stroke="#000000" stroke-linecap="round" stroke-linejoin="round" stroke-miterlimit="10" stroke-width="2"/><line x1="42" x2="42" y1="12.73" y2="14.73" fill="none" stroke="#000000" stroke-linecap="round" stroke-linejoin="round" stroke-miterlimit="10" stroke-width="2"/><path fill="none" stroke="#000000" stroke-linecap="round" stroke-linejoin="round" stroke-miterlimit="10" stroke-width="2" d="M22,53.693c5.841-0.752,10.411-1.566,14-2.376"/><path fill="none" stroke="#000000" stroke-linecap="round" stroke-linejoin="round" stroke-miterlimit="10" stroke-width="2" d="M40,50.307c0.72-0.204,1.39-0.407,2-0.606"/></svg>