<?xml version="1.0"?>
<svg xmlns="http://www.w3.org/2000/svg" viewBox="0 0 24 24">
    <path style="text-indent:0;text-align:start;line-height:normal;text-transform:none;block-progression:tb;-inkscape-font-specification:Bitstream Vera Sans" d="M 12 2 C 6.4886661 2 2 6.4886661 2 12 C 2 17.511334 6.4886661 22 12 22 C 17.511334 22 22 17.511334 22 12 C 22 6.4886661 17.511334 2 12 2 z M 12 4 C 16.430666 4 20 7.5693339 20 12 C 20 16.430666 16.430666 20 12 20 C 7.5693339 20 4 16.430666 4 12 C 4 7.5693339 7.5693339 4 12 4 z M 9.90625 6.40625 L 9.90625 16.40625 L 15.46875 16.40625 L 15.46875 14.71875 L 11.9375 14.71875 L 11.9375 6.40625 L 9.90625 6.40625 z" overflow="visible" font-family="Bitstream Vera Sans"/>
</svg>
